<?xml version="1.0" encoding="UTF-8" standalone="no"?>
<!DOCTYPE svg PUBLIC "-//W3C//DTD SVG 1.1//EN"
 "http://www.w3.org/Graphics/SVG/1.1/DTD/svg11.dtd">
<!-- Generated by graphviz version 14.1.5 (20260411.2331)
 -->
<!-- Pages: 1 -->
<svg width="1477pt" height="121pt"
 viewBox="0.00 0.00 1477.00 121.00" xmlns="http://www.w3.org/2000/svg" xmlns:xlink="http://www.w3.org/1999/xlink">
<g id="graph0" class="graph" transform="scale(1 1) rotate(0) translate(4 117)">
<polygon fill="white" stroke="none" points="-4,4 -4,-117 1473,-117 1473,4 -4,4"/>
<!-- 2319976823552 -->
<g id="node1" class="node">
<title>2319976823552</title>
<polygon fill="none" stroke="black" points="509.75,-82 322.25,-82 318.25,-78 318.25,-46 505.75,-46 509.75,-50 509.75,-82"/>
<polyline fill="none" stroke="black" points="505.75,-78 318.25,-78"/>
<polyline fill="none" stroke="black" points="505.75,-78 505.75,-46"/>
<polyline fill="none" stroke="black" points="505.75,-78 509.75,-82"/>
<text xml:space="preserve" text-anchor="middle" x="414" y="-58.95" font-family="Times New Roman,serif" font-size="14.00">{ c | val &#45;6.0000 | grad 0.0092 }</text>
</g>
<!-- 2319977058192+ -->
<g id="node10" class="node">
<title>2319977058192+</title>
<ellipse fill="none" stroke="black" cx="572.75" cy="-41" rx="27" ry="18"/>
<text xml:space="preserve" text-anchor="middle" x="572.75" y="-35.95" font-family="Times New Roman,serif" font-size="14.00">+</text>
</g>
<!-- 2319976823552&#45;&gt;2319977058192+ -->
<g id="edge11" class="edge">
<title>2319976823552&#45;&gt;2319977058192+</title>
<path fill="none" stroke="black" d="M510.25,-50.02C518.83,-48.76 527.13,-47.55 534.71,-46.44"/>
<polygon fill="black" stroke="black" points="535.07,-49.92 544.46,-45 534.06,-42.99 535.07,-49.92"/>
</g>
<!-- 2319976823552* -->
<g id="node2" class="node">
<title>2319976823552*</title>
<ellipse fill="none" stroke="black" cx="255.25" cy="-64" rx="27" ry="18"/>
<text xml:space="preserve" text-anchor="middle" x="255.25" y="-58.95" font-family="Times New Roman,serif" font-size="14.00">*</text>
</g>
<!-- 2319976823552*&#45;&gt;2319976823552 -->
<g id="edge1" class="edge">
<title>2319976823552*&#45;&gt;2319976823552</title>
<path fill="none" stroke="black" d="M282.49,-64C289.66,-64 297.89,-64 306.66,-64"/>
<polygon fill="black" stroke="black" points="306.51,-67.5 316.51,-64 306.51,-60.5 306.51,-67.5"/>
</g>
<!-- 2319980349056 -->
<g id="node3" class="node">
<title>2319980349056</title>
<polygon fill="none" stroke="black" points="1141,-59 958,-59 954,-55 954,-23 1137,-23 1141,-27 1141,-59"/>
<polyline fill="none" stroke="black" points="1137,-55 954,-55"/>
<polyline fill="none" stroke="black" points="1137,-55 1137,-23"/>
<polyline fill="none" stroke="black" points="1137,-55 1141,-59"/>
<text xml:space="preserve" text-anchor="middle" x="1047.5" y="-35.95" font-family="Times New Roman,serif" font-size="14.00">{ e | val 0.0183 | grad 0.5000 }</text>
</g>
<!-- 2319980350896/ -->
<g id="node8" class="node">
<title>2319980350896/</title>
<ellipse fill="none" stroke="black" cx="1204" cy="-68" rx="27" ry="18"/>
<text xml:space="preserve" text-anchor="middle" x="1204" y="-62.95" font-family="Times New Roman,serif" font-size="14.00">/</text>
</g>
<!-- 2319980349056&#45;&gt;2319980350896/ -->
<g id="edge9" class="edge">
<title>2319980349056&#45;&gt;2319980350896/</title>
<path fill="none" stroke="black" d="M1141.49,-57.25C1150.13,-58.76 1158.5,-60.22 1166.13,-61.56"/>
<polygon fill="black" stroke="black" points="1165.51,-65 1175.97,-63.28 1166.72,-58.11 1165.51,-65"/>
</g>
<!-- 2319980349056exp -->
<g id="node4" class="node">
<title>2319980349056exp</title>
<ellipse fill="none" stroke="black" cx="891" cy="-41" rx="27" ry="18"/>
<text xml:space="preserve" text-anchor="middle" x="891" y="-35.95" font-family="Times New Roman,serif" font-size="14.00">exp</text>
</g>
<!-- 2319980349056exp&#45;&gt;2319980349056 -->
<g id="edge2" class="edge">
<title>2319980349056exp&#45;&gt;2319980349056</title>
<path fill="none" stroke="black" d="M918.21,-41C925.35,-41 933.55,-41 942.27,-41"/>
<polygon fill="black" stroke="black" points="942.04,-44.5 952.04,-41 942.04,-37.5 942.04,-44.5"/>
</g>
<!-- 2319976192640 -->
<g id="node5" class="node">
<title>2319976192640</title>
<polygon fill="none" stroke="black" points="191.88,-36 4.38,-36 0.38,-32 0.38,0 187.88,0 191.88,-4 191.88,-36"/>
<polyline fill="none" stroke="black" points="187.88,-32 0.38,-32"/>
<polyline fill="none" stroke="black" points="187.88,-32 187.88,0"/>
<polyline fill="none" stroke="black" points="187.88,-32 191.88,-36"/>
<text xml:space="preserve" text-anchor="middle" x="96.12" y="-12.95" font-family="Times New Roman,serif" font-size="14.00">{ a | val 2.0000 | grad &#45;0.0183 }</text>
</g>
<!-- 2319976192640&#45;&gt;2319976823552* -->
<g id="edge7" class="edge">
<title>2319976192640&#45;&gt;2319976823552*</title>
<path fill="none" stroke="black" d="M162.93,-36.49C172.77,-39.31 182.78,-42.21 192.25,-45 201.06,-47.6 210.55,-50.47 219.39,-53.18"/>
<polygon fill="black" stroke="black" points="218.11,-56.45 228.69,-56.04 220.17,-49.75 218.11,-56.45"/>
</g>
<!-- 2319976192640&#45;&gt;2319977058192+ -->
<g id="edge5" class="edge">
<title>2319976192640&#45;&gt;2319977058192+</title>
<path fill="none" stroke="black" d="M192.21,-21.88C275.85,-25.41 400.91,-30.98 509.75,-37 517.64,-37.44 526.09,-37.95 534.13,-38.46"/>
<polygon fill="black" stroke="black" points="533.79,-41.95 544,-39.1 534.25,-34.96 533.79,-41.95"/>
</g>
<!-- 2319980349696 -->
<g id="node6" class="node">
<title>2319980349696</title>
<polygon fill="none" stroke="black" points="1140.25,-113 958.75,-113 954.75,-109 954.75,-77 1136.25,-77 1140.25,-81 1140.25,-113"/>
<polyline fill="none" stroke="black" points="1136.25,-109 954.75,-109"/>
<polyline fill="none" stroke="black" points="1136.25,-109 1136.25,-77"/>
<polyline fill="none" stroke="black" points="1136.25,-109 1140.25,-113"/>
<text xml:space="preserve" text-anchor="middle" x="1047.5" y="-89.95" font-family="Times New Roman,serif" font-size="14.00">{ &#160;| val 2.0000 | grad &#45;0.0046 }</text>
</g>
<!-- 2319980349696&#45;&gt;2319980350896/ -->
<g id="edge8" class="edge">
<title>2319980349696&#45;&gt;2319980350896/</title>
<path fill="none" stroke="black" d="M1140.6,-78.9C1149.53,-77.34 1158.18,-75.83 1166.06,-74.46"/>
<polygon fill="black" stroke="black" points="1166.61,-77.91 1175.86,-72.74 1165.4,-71.02 1166.61,-77.91"/>
</g>
<!-- 2319980350896 -->
<g id="node7" class="node">
<title>2319980350896</title>
<polygon fill="none" stroke="black" points="1469,-86 1271,-86 1267,-82 1267,-50 1465,-50 1469,-54 1469,-86"/>
<polyline fill="none" stroke="black" points="1465,-82 1267,-82"/>
<polyline fill="none" stroke="black" points="1465,-82 1465,-50"/>
<polyline fill="none" stroke="black" points="1465,-82 1469,-86"/>
<text xml:space="preserve" text-anchor="middle" x="1368" y="-62.95" font-family="Times New Roman,serif" font-size="14.00">{ loss | val 0.0092 | grad 1.0000 }</text>
</g>
<!-- 2319980350896/&#45;&gt;2319980350896 -->
<g id="edge3" class="edge">
<title>2319980350896/&#45;&gt;2319980350896</title>
<path fill="none" stroke="black" d="M1231.39,-68C1238.51,-68 1246.69,-68 1255.42,-68"/>
<polygon fill="black" stroke="black" points="1255.23,-71.5 1265.23,-68 1255.23,-64.5 1255.23,-71.5"/>
</g>
<!-- 2319977058192 -->
<g id="node9" class="node">
<title>2319977058192</title>
<polygon fill="none" stroke="black" points="828,-59 639.75,-59 635.75,-55 635.75,-23 824,-23 828,-27 828,-59"/>
<polyline fill="none" stroke="black" points="824,-55 635.75,-55"/>
<polyline fill="none" stroke="black" points="824,-55 824,-23"/>
<polyline fill="none" stroke="black" points="824,-55 828,-59"/>
<text xml:space="preserve" text-anchor="middle" x="731.88" y="-35.95" font-family="Times New Roman,serif" font-size="14.00">{ d | val &#45;4.0000 | grad 0.0092 }</text>
</g>
<!-- 2319977058192&#45;&gt;2319980349056exp -->
<g id="edge6" class="edge">
<title>2319977058192&#45;&gt;2319980349056exp</title>
<path fill="none" stroke="black" d="M828.35,-41C836.68,-41 844.75,-41 852.15,-41"/>
<polygon fill="black" stroke="black" points="852.03,-44.5 862.03,-41 852.03,-37.5 852.03,-44.5"/>
</g>
<!-- 2319977058192+&#45;&gt;2319977058192 -->
<g id="edge4" class="edge">
<title>2319977058192+&#45;&gt;2319977058192</title>
<path fill="none" stroke="black" d="M600.05,-41C607.17,-41 615.35,-41 624.06,-41"/>
<polygon fill="black" stroke="black" points="623.83,-44.5 633.83,-41 623.83,-37.5 623.83,-44.5"/>
</g>
<!-- 2319976192720 -->
<g id="node11" class="node">
<title>2319976192720</title>
<polygon fill="none" stroke="black" points="192.25,-90 4,-90 0,-86 0,-54 188.25,-54 192.25,-58 192.25,-90"/>
<polyline fill="none" stroke="black" points="188.25,-86 0,-86"/>
<polyline fill="none" stroke="black" points="188.25,-86 188.25,-54"/>
<polyline fill="none" stroke="black" points="188.25,-86 192.25,-90"/>
<text xml:space="preserve" text-anchor="middle" x="96.12" y="-66.95" font-family="Times New Roman,serif" font-size="14.00">{ b | val &#45;3.0000 | grad 0.0183 }</text>
</g>
<!-- 2319976192720&#45;&gt;2319976823552* -->
<g id="edge10" class="edge">
<title>2319976192720&#45;&gt;2319976823552*</title>
<path fill="none" stroke="black" d="M192.6,-67.14C201.02,-66.71 209.16,-66.3 216.63,-65.92"/>
<polygon fill="black" stroke="black" points="216.77,-69.41 226.58,-65.41 216.42,-62.42 216.77,-69.41"/>
</g>
</g>
</svg>
