<?xml version="1.0" encoding="UTF-8" standalone="no"?>
<!DOCTYPE svg PUBLIC "-//W3C//DTD SVG 1.1//EN"
 "http://www.w3.org/Graphics/SVG/1.1/DTD/svg11.dtd">
<!-- Generated by graphviz version 14.1.5 (20260411.2331)
 -->
<!-- Pages: 1 -->
<svg width="1849pt" height="238pt"
 viewBox="0.00 0.00 1849.00 238.00" xmlns="http://www.w3.org/2000/svg" xmlns:xlink="http://www.w3.org/1999/xlink">
<g id="graph0" class="graph" transform="scale(1 1) rotate(0) translate(4 234)">
<polygon fill="white" stroke="none" points="-4,4 -4,-234 1844.5,-234 1844.5,4 -4,4"/>
<!-- 1460351602176 -->
<g id="node1" class="node">
<title>1460351602176</title>
<polygon fill="none" stroke="black" points="1004.25,-55.5 1004.25,-91.5 1197,-91.5 1197,-55.5 1004.25,-55.5"/>
<text xml:space="preserve" text-anchor="middle" x="1015.25" y="-68.7" font-family="Times New Roman,serif" font-size="14.00">?</text>
<polyline fill="none" stroke="black" points="1026.25,-56 1026.25,-91.5"/>
<text xml:space="preserve" text-anchor="middle" x="1065.38" y="-68.7" font-family="Times New Roman,serif" font-size="14.00">val &#45;8.0000</text>
<polyline fill="none" stroke="black" points="1104.5,-56 1104.5,-91.5"/>
<text xml:space="preserve" text-anchor="middle" x="1150.75" y="-68.7" font-family="Times New Roman,serif" font-size="14.00">grad &#45;16.0000</text>
</g>
<!-- 1460351601888+ -->
<g id="node8" class="node">
<title>1460351601888+</title>
<ellipse fill="none" stroke="black" cx="1260" cy="-100.5" rx="27" ry="18"/>
<text xml:space="preserve" text-anchor="middle" x="1260" y="-95.45" font-family="Times New Roman,serif" font-size="14.00">+</text>
</g>
<!-- 1460351602176&#45;&gt;1460351601888+ -->
<g id="edge8" class="edge">
<title>1460351602176&#45;&gt;1460351601888+</title>
<path fill="none" stroke="black" d="M1197.25,-89.91C1206.06,-91.42 1214.57,-92.88 1222.31,-94.2"/>
<polygon fill="black" stroke="black" points="1221.46,-97.61 1231.91,-95.85 1222.65,-90.71 1221.46,-97.61"/>
</g>
<!-- 1460351602176* -->
<g id="node2" class="node">
<title>1460351602176*</title>
<ellipse fill="none" stroke="black" cx="941.25" cy="-73.5" rx="27" ry="18"/>
<text xml:space="preserve" text-anchor="middle" x="941.25" y="-68.45" font-family="Times New Roman,serif" font-size="14.00">*</text>
</g>
<!-- 1460351602176*&#45;&gt;1460351602176 -->
<g id="edge1" class="edge">
<title>1460351602176*&#45;&gt;1460351602176</title>
<path fill="none" stroke="black" d="M968.59,-73.5C975.73,-73.5 983.92,-73.5 992.64,-73.5"/>
<polygon fill="black" stroke="black" points="992.42,-77 1002.42,-73.5 992.42,-70 992.42,-77"/>
</g>
<!-- 1460352222272 -->
<g id="node3" class="node">
<title>1460352222272</title>
<polygon fill="none" stroke="black" points="684,-165.5 684,-201.5 873,-201.5 873,-165.5 684,-165.5"/>
<text xml:space="preserve" text-anchor="middle" x="695.38" y="-178.7" font-family="Times New Roman,serif" font-size="14.00">b</text>
<polyline fill="none" stroke="black" points="706.75,-166 706.75,-201.5"/>
<text xml:space="preserve" text-anchor="middle" x="743.62" y="-178.7" font-family="Times New Roman,serif" font-size="14.00">val 2.1600</text>
<polyline fill="none" stroke="black" points="780.5,-166 780.5,-201.5"/>
<text xml:space="preserve" text-anchor="middle" x="826.75" y="-178.7" font-family="Times New Roman,serif" font-size="14.00">grad &#45;16.0000</text>
</g>
<!-- 1460351604048+ -->
<g id="node17" class="node">
<title>1460351604048+</title>
<ellipse fill="none" stroke="black" cx="941.25" cy="-128.5" rx="27" ry="18"/>
<text xml:space="preserve" text-anchor="middle" x="941.25" y="-123.45" font-family="Times New Roman,serif" font-size="14.00">+</text>
</g>
<!-- 1460352222272&#45;&gt;1460351604048+ -->
<g id="edge12" class="edge">
<title>1460352222272&#45;&gt;1460351604048+</title>
<path fill="none" stroke="black" d="M852.18,-165.03C861.03,-162.37 869.89,-159.51 878.25,-156.5 888.34,-152.87 899.08,-148.29 908.73,-143.89"/>
<polygon fill="black" stroke="black" points="910.12,-147.1 917.7,-139.7 907.16,-140.76 910.12,-147.1"/>
</g>
<!-- 1462429879376 -->
<g id="node4" class="node">
<title>1462429879376</title>
<polygon fill="none" stroke="black" points="2.25,-83.5 2.25,-119.5 201,-119.5 201,-83.5 2.25,-83.5"/>
<text xml:space="preserve" text-anchor="middle" x="18.5" y="-96.7" font-family="Times New Roman,serif" font-size="14.00">w1</text>
<polyline fill="none" stroke="black" points="34.75,-84 34.75,-119.5"/>
<text xml:space="preserve" text-anchor="middle" x="71.62" y="-96.7" font-family="Times New Roman,serif" font-size="14.00">val 0.8200</text>
<polyline fill="none" stroke="black" points="108.5,-84 108.5,-119.5"/>
<text xml:space="preserve" text-anchor="middle" x="154.75" y="-96.7" font-family="Times New Roman,serif" font-size="14.00">grad &#45;32.0000</text>
</g>
<!-- 1460351607696* -->
<g id="node20" class="node">
<title>1460351607696*</title>
<ellipse fill="none" stroke="black" cx="266.25" cy="-101.5" rx="27" ry="18"/>
<text xml:space="preserve" text-anchor="middle" x="266.25" y="-96.45" font-family="Times New Roman,serif" font-size="14.00">*</text>
</g>
<!-- 1462429879376&#45;&gt;1460351607696* -->
<g id="edge19" class="edge">
<title>1462429879376&#45;&gt;1460351607696*</title>
<path fill="none" stroke="black" d="M201.44,-101.5C210.54,-101.5 219.33,-101.5 227.33,-101.5"/>
<polygon fill="black" stroke="black" points="227.29,-105 237.29,-101.5 227.29,-98 227.29,-105"/>
</g>
<!-- 1460351611488 -->
<g id="node5" class="node">
<title>1460351611488</title>
<polygon fill="none" stroke="black" points="6,-193.5 6,-229.5 197.25,-229.5 197.25,-193.5 6,-193.5"/>
<text xml:space="preserve" text-anchor="middle" x="20.75" y="-206.7" font-family="Times New Roman,serif" font-size="14.00">x2</text>
<polyline fill="none" stroke="black" points="35.5,-194 35.5,-229.5"/>
<text xml:space="preserve" text-anchor="middle" x="72.38" y="-206.7" font-family="Times New Roman,serif" font-size="14.00">val 3.0000</text>
<polyline fill="none" stroke="black" points="109.25,-194 109.25,-229.5"/>
<text xml:space="preserve" text-anchor="middle" x="153.25" y="-206.7" font-family="Times New Roman,serif" font-size="14.00">grad 16.0000</text>
</g>
<!-- 1460351610144* -->
<g id="node15" class="node">
<title>1460351610144*</title>
<ellipse fill="none" stroke="black" cx="266.25" cy="-156.5" rx="27" ry="18"/>
<text xml:space="preserve" text-anchor="middle" x="266.25" y="-151.45" font-family="Times New Roman,serif" font-size="14.00">*</text>
</g>
<!-- 1460351611488&#45;&gt;1460351610144* -->
<g id="edge16" class="edge">
<title>1460351611488&#45;&gt;1460351610144*</title>
<path fill="none" stroke="black" d="M176.96,-193.02C185.89,-190.37 194.82,-187.51 203.25,-184.5 213.35,-180.89 224.09,-176.32 233.74,-171.92"/>
<polygon fill="black" stroke="black" points="235.13,-175.13 242.71,-167.73 232.17,-168.79 235.13,-175.13"/>
</g>
<!-- 1460351602320 -->
<g id="node6" class="node">
<title>1460351602320</title>
<polygon fill="none" stroke="black" points="686.62,-55.5 686.62,-91.5 870.38,-91.5 870.38,-55.5 686.62,-55.5"/>
<text xml:space="preserve" text-anchor="middle" x="697.62" y="-68.7" font-family="Times New Roman,serif" font-size="14.00">?</text>
<polyline fill="none" stroke="black" points="708.62,-56 708.62,-91.5"/>
<text xml:space="preserve" text-anchor="middle" x="745.5" y="-68.7" font-family="Times New Roman,serif" font-size="14.00">val 8.0000</text>
<polyline fill="none" stroke="black" points="782.38,-56 782.38,-91.5"/>
<text xml:space="preserve" text-anchor="middle" x="826.38" y="-68.7" font-family="Times New Roman,serif" font-size="14.00">grad 16.0000</text>
</g>
<!-- 1460351602320&#45;&gt;1460351602176* -->
<g id="edge18" class="edge">
<title>1460351602320&#45;&gt;1460351602176*</title>
<path fill="none" stroke="black" d="M870.68,-73.5C881.96,-73.5 892.96,-73.5 902.75,-73.5"/>
<polygon fill="black" stroke="black" points="902.53,-77 912.53,-73.5 902.53,-70 902.53,-77"/>
</g>
<!-- 1460351601888 -->
<g id="node7" class="node">
<title>1460351601888</title>
<polygon fill="none" stroke="black" points="1323,-82.5 1323,-118.5 1515.75,-118.5 1515.75,-82.5 1323,-82.5"/>
<text xml:space="preserve" text-anchor="middle" x="1334" y="-95.7" font-family="Times New Roman,serif" font-size="14.00">?</text>
<polyline fill="none" stroke="black" points="1345,-83 1345,-118.5"/>
<text xml:space="preserve" text-anchor="middle" x="1384.12" y="-95.7" font-family="Times New Roman,serif" font-size="14.00">val &#45;8.0000</text>
<polyline fill="none" stroke="black" points="1423.25,-83 1423.25,-118.5"/>
<text xml:space="preserve" text-anchor="middle" x="1469.5" y="-95.7" font-family="Times New Roman,serif" font-size="14.00">grad &#45;16.0000</text>
</g>
<!-- 1460351614176**2 -->
<g id="node10" class="node">
<title>1460351614176**2</title>
<ellipse fill="none" stroke="black" cx="1578.75" cy="-100.5" rx="27" ry="18"/>
<text xml:space="preserve" text-anchor="middle" x="1578.75" y="-95.45" font-family="Times New Roman,serif" font-size="14.00">**2</text>
</g>
<!-- 1460351601888&#45;&gt;1460351614176**2 -->
<g id="edge13" class="edge">
<title>1460351601888&#45;&gt;1460351614176**2</title>
<path fill="none" stroke="black" d="M1516,-100.5C1524.43,-100.5 1532.59,-100.5 1540.07,-100.5"/>
<polygon fill="black" stroke="black" points="1540.04,-104 1550.04,-100.5 1540.04,-97 1540.04,-104"/>
</g>
<!-- 1460351601888+&#45;&gt;1460351601888 -->
<g id="edge2" class="edge">
<title>1460351601888+&#45;&gt;1460351601888</title>
<path fill="none" stroke="black" d="M1287.34,-100.5C1294.48,-100.5 1302.67,-100.5 1311.39,-100.5"/>
<polygon fill="black" stroke="black" points="1311.17,-104 1321.17,-100.5 1311.17,-97 1311.17,-104"/>
</g>
<!-- 1460351614176 -->
<g id="node9" class="node">
<title>1460351614176</title>
<polygon fill="none" stroke="black" points="1641.75,-82.5 1641.75,-118.5 1840.5,-118.5 1840.5,-82.5 1641.75,-82.5"/>
<text xml:space="preserve" text-anchor="middle" x="1660.25" y="-95.7" font-family="Times New Roman,serif" font-size="14.00">loss</text>
<polyline fill="none" stroke="black" points="1678.75,-83 1678.75,-118.5"/>
<text xml:space="preserve" text-anchor="middle" x="1719" y="-95.7" font-family="Times New Roman,serif" font-size="14.00">val 64.0000</text>
<polyline fill="none" stroke="black" points="1759.25,-83 1759.25,-118.5"/>
<text xml:space="preserve" text-anchor="middle" x="1799.88" y="-95.7" font-family="Times New Roman,serif" font-size="14.00">grad 1.0000</text>
</g>
<!-- 1460351614176**2&#45;&gt;1460351614176 -->
<g id="edge3" class="edge">
<title>1460351614176**2&#45;&gt;1460351614176</title>
<path fill="none" stroke="black" d="M1606.23,-100.5C1613.36,-100.5 1621.54,-100.5 1630.27,-100.5"/>
<polygon fill="black" stroke="black" points="1630.06,-104 1640.06,-100.5 1630.06,-97 1630.06,-104"/>
</g>
<!-- 1460351600400 -->
<g id="node11" class="node">
<title>1460351600400</title>
<polygon fill="none" stroke="black" points="681.75,-110.5 681.75,-146.5 875.25,-146.5 875.25,-110.5 681.75,-110.5"/>
<text xml:space="preserve" text-anchor="middle" x="693.12" y="-123.7" font-family="Times New Roman,serif" font-size="14.00">n</text>
<polyline fill="none" stroke="black" points="704.5,-111 704.5,-146.5"/>
<text xml:space="preserve" text-anchor="middle" x="743.62" y="-123.7" font-family="Times New Roman,serif" font-size="14.00">val &#45;2.0000</text>
<polyline fill="none" stroke="black" points="782.75,-111 782.75,-146.5"/>
<text xml:space="preserve" text-anchor="middle" x="829" y="-123.7" font-family="Times New Roman,serif" font-size="14.00">grad &#45;16.0000</text>
</g>
<!-- 1460351600400&#45;&gt;1460351604048+ -->
<g id="edge10" class="edge">
<title>1460351600400&#45;&gt;1460351604048+</title>
<path fill="none" stroke="black" d="M875.33,-128.5C884.93,-128.5 894.22,-128.5 902.63,-128.5"/>
<polygon fill="black" stroke="black" points="902.36,-132 912.36,-128.5 902.36,-125 902.36,-132"/>
</g>
<!-- 1460351600400+ -->
<g id="node12" class="node">
<title>1460351600400+</title>
<ellipse fill="none" stroke="black" cx="615.75" cy="-128.5" rx="27" ry="18"/>
<text xml:space="preserve" text-anchor="middle" x="615.75" y="-123.45" font-family="Times New Roman,serif" font-size="14.00">+</text>
</g>
<!-- 1460351600400+&#45;&gt;1460351600400 -->
<g id="edge4" class="edge">
<title>1460351600400+&#45;&gt;1460351600400</title>
<path fill="none" stroke="black" d="M642.94,-128.5C650.89,-128.5 660.16,-128.5 670.05,-128.5"/>
<polygon fill="black" stroke="black" points="669.94,-132 679.94,-128.5 669.94,-125 669.94,-132"/>
</g>
<!-- 1460351601936 -->
<g id="node13" class="node">
<title>1460351601936</title>
<polygon fill="none" stroke="black" points="7.12,-28.5 7.12,-64.5 196.12,-64.5 196.12,-28.5 7.12,-28.5"/>
<text xml:space="preserve" text-anchor="middle" x="21.88" y="-41.7" font-family="Times New Roman,serif" font-size="14.00">x1</text>
<polyline fill="none" stroke="black" points="36.62,-29 36.62,-64.5"/>
<text xml:space="preserve" text-anchor="middle" x="73.5" y="-41.7" font-family="Times New Roman,serif" font-size="14.00">val 2.0000</text>
<polyline fill="none" stroke="black" points="110.38,-29 110.38,-64.5"/>
<text xml:space="preserve" text-anchor="middle" x="153.25" y="-41.7" font-family="Times New Roman,serif" font-size="14.00">grad &#45;8.0000</text>
</g>
<!-- 1460351601936&#45;&gt;1460351607696* -->
<g id="edge14" class="edge">
<title>1460351601936&#45;&gt;1460351607696*</title>
<path fill="none" stroke="black" d="M173.66,-64.93C183.66,-67.91 193.77,-71.13 203.25,-74.5 213.22,-78.04 223.85,-82.43 233.44,-86.64"/>
<polygon fill="black" stroke="black" points="231.8,-89.74 242.36,-90.63 234.66,-83.35 231.8,-89.74"/>
</g>
<!-- 1460351610144 -->
<g id="node14" class="node">
<title>1460351610144</title>
<polygon fill="none" stroke="black" points="329.25,-138.5 329.25,-174.5 552.75,-174.5 552.75,-138.5 329.25,-138.5"/>
<text xml:space="preserve" text-anchor="middle" x="355.62" y="-151.7" font-family="Times New Roman,serif" font-size="14.00">x2*w2</text>
<polyline fill="none" stroke="black" points="382,-139 382,-174.5"/>
<text xml:space="preserve" text-anchor="middle" x="421.12" y="-151.7" font-family="Times New Roman,serif" font-size="14.00">val &#45;3.0000</text>
<polyline fill="none" stroke="black" points="460.25,-139 460.25,-174.5"/>
<text xml:space="preserve" text-anchor="middle" x="506.5" y="-151.7" font-family="Times New Roman,serif" font-size="14.00">grad &#45;16.0000</text>
</g>
<!-- 1460351610144&#45;&gt;1460351600400+ -->
<g id="edge20" class="edge">
<title>1460351610144&#45;&gt;1460351600400+</title>
<path fill="none" stroke="black" d="M552.87,-138.53C561.67,-137.1 570.09,-135.74 577.74,-134.5"/>
<polygon fill="black" stroke="black" points="578.26,-137.96 587.57,-132.91 577.14,-131.05 578.26,-137.96"/>
</g>
<!-- 1460351610144*&#45;&gt;1460351610144 -->
<g id="edge5" class="edge">
<title>1460351610144*&#45;&gt;1460351610144</title>
<path fill="none" stroke="black" d="M293.49,-156.5C300.59,-156.5 308.77,-156.5 317.55,-156.5"/>
<polygon fill="black" stroke="black" points="317.45,-160 327.45,-156.5 317.45,-153 317.45,-160"/>
</g>
<!-- 1460351604048 -->
<g id="node16" class="node">
<title>1460351604048</title>
<polygon fill="none" stroke="black" points="1006.12,-110.5 1006.12,-146.5 1195.12,-146.5 1195.12,-110.5 1006.12,-110.5"/>
<text xml:space="preserve" text-anchor="middle" x="1017.5" y="-123.7" font-family="Times New Roman,serif" font-size="14.00">y</text>
<polyline fill="none" stroke="black" points="1028.88,-111 1028.88,-146.5"/>
<text xml:space="preserve" text-anchor="middle" x="1065.75" y="-123.7" font-family="Times New Roman,serif" font-size="14.00">val 0.0000</text>
<polyline fill="none" stroke="black" points="1102.62,-111 1102.62,-146.5"/>
<text xml:space="preserve" text-anchor="middle" x="1148.88" y="-123.7" font-family="Times New Roman,serif" font-size="14.00">grad &#45;16.0000</text>
</g>
<!-- 1460351604048&#45;&gt;1460351601888+ -->
<g id="edge9" class="edge">
<title>1460351604048&#45;&gt;1460351601888+</title>
<path fill="none" stroke="black" d="M1195.44,-111.81C1204.93,-110.12 1214.11,-108.49 1222.4,-107.01"/>
<polygon fill="black" stroke="black" points="1222.76,-110.5 1231.99,-105.31 1221.53,-103.61 1222.76,-110.5"/>
</g>
<!-- 1460351604048+&#45;&gt;1460351604048 -->
<g id="edge6" class="edge">
<title>1460351604048+&#45;&gt;1460351604048</title>
<path fill="none" stroke="black" d="M968.59,-128.5C976.26,-128.5 985.15,-128.5 994.61,-128.5"/>
<polygon fill="black" stroke="black" points="994.43,-132 1004.43,-128.5 994.43,-125 994.43,-132"/>
</g>
<!-- 1460351602560 -->
<g id="node18" class="node">
<title>1460351602560</title>
<polygon fill="none" stroke="black" points="678.75,-0.5 678.75,-36.5 878.25,-36.5 878.25,-0.5 678.75,-0.5"/>
<text xml:space="preserve" text-anchor="middle" x="689.75" y="-13.7" font-family="Times New Roman,serif" font-size="14.00">?</text>
<polyline fill="none" stroke="black" points="700.75,-1 700.75,-36.5"/>
<text xml:space="preserve" text-anchor="middle" x="739.88" y="-13.7" font-family="Times New Roman,serif" font-size="14.00">val &#45;1.0000</text>
<polyline fill="none" stroke="black" points="779,-1 779,-36.5"/>
<text xml:space="preserve" text-anchor="middle" x="828.62" y="-13.7" font-family="Times New Roman,serif" font-size="14.00">grad &#45;128.0000</text>
</g>
<!-- 1460351602560&#45;&gt;1460351602176* -->
<g id="edge17" class="edge">
<title>1460351602560&#45;&gt;1460351602176*</title>
<path fill="none" stroke="black" d="M849.2,-36.99C859.02,-39.97 868.94,-43.17 878.25,-46.5 888.21,-50.06 898.84,-54.46 908.43,-58.67"/>
<polygon fill="black" stroke="black" points="906.79,-61.77 917.35,-62.66 909.65,-55.38 906.79,-61.77"/>
</g>
<!-- 1460351607696 -->
<g id="node19" class="node">
<title>1460351607696</title>
<polygon fill="none" stroke="black" points="331.5,-83.5 331.5,-119.5 550.5,-119.5 550.5,-83.5 331.5,-83.5"/>
<text xml:space="preserve" text-anchor="middle" x="357.88" y="-96.7" font-family="Times New Roman,serif" font-size="14.00">x1*w1</text>
<polyline fill="none" stroke="black" points="384.25,-84 384.25,-119.5"/>
<text xml:space="preserve" text-anchor="middle" x="421.12" y="-96.7" font-family="Times New Roman,serif" font-size="14.00">val 1.0000</text>
<polyline fill="none" stroke="black" points="458,-84 458,-119.5"/>
<text xml:space="preserve" text-anchor="middle" x="504.25" y="-96.7" font-family="Times New Roman,serif" font-size="14.00">grad &#45;16.0000</text>
</g>
<!-- 1460351607696&#45;&gt;1460351600400+ -->
<g id="edge11" class="edge">
<title>1460351607696&#45;&gt;1460351600400+</title>
<path fill="none" stroke="black" d="M550.92,-118.52C560.42,-120.01 569.54,-121.43 577.75,-122.72"/>
<polygon fill="black" stroke="black" points="577.17,-126.17 587.59,-124.26 578.26,-119.25 577.17,-126.17"/>
</g>
<!-- 1460351607696*&#45;&gt;1460351607696 -->
<g id="edge7" class="edge">
<title>1460351607696*&#45;&gt;1460351607696</title>
<path fill="none" stroke="black" d="M293.49,-101.5C301.24,-101.5 310.27,-101.5 319.97,-101.5"/>
<polygon fill="black" stroke="black" points="319.67,-105 329.67,-101.5 319.67,-98 319.67,-105"/>
</g>
<!-- 1460352228848 -->
<g id="node21" class="node">
<title>1460352228848</title>
<polygon fill="none" stroke="black" points="0,-138.5 0,-174.5 203.25,-174.5 203.25,-138.5 0,-138.5"/>
<text xml:space="preserve" text-anchor="middle" x="16.25" y="-151.7" font-family="Times New Roman,serif" font-size="14.00">w2</text>
<polyline fill="none" stroke="black" points="32.5,-139 32.5,-174.5"/>
<text xml:space="preserve" text-anchor="middle" x="71.62" y="-151.7" font-family="Times New Roman,serif" font-size="14.00">val &#45;0.5200</text>
<polyline fill="none" stroke="black" points="110.75,-139 110.75,-174.5"/>
<text xml:space="preserve" text-anchor="middle" x="157" y="-151.7" font-family="Times New Roman,serif" font-size="14.00">grad &#45;48.0000</text>
</g>
<!-- 1460352228848&#45;&gt;1460351610144* -->
<g id="edge15" class="edge">
<title>1460352228848&#45;&gt;1460351610144*</title>
<path fill="none" stroke="black" d="M203.3,-156.5C211.73,-156.5 219.86,-156.5 227.31,-156.5"/>
<polygon fill="black" stroke="black" points="227.24,-160 237.24,-156.5 227.24,-153 227.24,-160"/>
</g>
</g>
</svg>
